<mxfile host="Electron" modified="2023-05-01T01:52:00.482Z" agent="Mozilla/5.0 (Windows NT 10.0; Win64; x64) AppleWebKit/537.36 (KHTML, like Gecko) draw.io/21.2.1 Chrome/112.0.5615.87 Electron/24.1.2 Safari/537.36" version="21.2.1" etag="TQmA4ATnDpaa_s9DRJyg" type="device">
  <diagram id="C5RBs43oDa-KdzZeNtuy" name="Page-1">
    <mxGraphModel dx="2049" dy="1206" grid="1" gridSize="10" guides="1" tooltips="1" connect="1" arrows="1" fold="1" page="1" pageScale="1" pageWidth="827" pageHeight="1169" math="0" shadow="0">
      <root>
        <mxCell id="WIyWlLk6GJQsqaUBKTNV-0" />
        <mxCell id="WIyWlLk6GJQsqaUBKTNV-1" parent="WIyWlLk6GJQsqaUBKTNV-0" />
        <mxCell id="pFymI8tG2QBnLlS8fsQo-2" value="GOAPWorldState" style="swimlane;fontStyle=1;align=center;verticalAlign=top;childLayout=stackLayout;horizontal=1;startSize=26;horizontalStack=0;resizeParent=1;resizeParentMax=0;resizeLast=0;collapsible=1;marginBottom=0;whiteSpace=wrap;html=1;" vertex="1" parent="WIyWlLk6GJQsqaUBKTNV-1">
          <mxGeometry x="464" y="940" width="170" height="200" as="geometry">
            <mxRectangle x="490" y="460" width="100" height="30" as="alternateBounds" />
          </mxGeometry>
        </mxCell>
        <mxCell id="pFymI8tG2QBnLlS8fsQo-3" value="- states : map&amp;lt;FString, bool&amp;gt;" style="text;strokeColor=none;fillColor=none;align=left;verticalAlign=top;spacingLeft=4;spacingRight=4;overflow=hidden;rotatable=0;points=[[0,0.5],[1,0.5]];portConstraint=eastwest;whiteSpace=wrap;html=1;" vertex="1" parent="pFymI8tG2QBnLlS8fsQo-2">
          <mxGeometry y="26" width="170" height="24" as="geometry" />
        </mxCell>
        <mxCell id="pFymI8tG2QBnLlS8fsQo-4" value="" style="line;strokeWidth=1;fillColor=none;align=left;verticalAlign=middle;spacingTop=-1;spacingLeft=3;spacingRight=3;rotatable=0;labelPosition=right;points=[];portConstraint=eastwest;strokeColor=inherit;" vertex="1" parent="pFymI8tG2QBnLlS8fsQo-2">
          <mxGeometry y="50" width="170" height="8" as="geometry" />
        </mxCell>
        <mxCell id="pFymI8tG2QBnLlS8fsQo-5" value="+ addState()&lt;br&gt;+ cleanStates()&lt;br&gt;+ getStates() : const map&amp;lt;FString, bool&amp;gt; &amp;amp;&lt;br&gt;+ isEmpty() : bool&lt;br&gt;+ isIncluded() : bool&lt;br&gt;+ joinWorldState()&lt;br&gt;+ operator==() : bool&lt;br&gt;+ setStates()" style="text;strokeColor=none;fillColor=none;align=left;verticalAlign=top;spacingLeft=4;spacingRight=4;overflow=hidden;rotatable=0;points=[[0,0.5],[1,0.5]];portConstraint=eastwest;whiteSpace=wrap;html=1;" vertex="1" parent="pFymI8tG2QBnLlS8fsQo-2">
          <mxGeometry y="58" width="170" height="142" as="geometry" />
        </mxCell>
        <mxCell id="pFymI8tG2QBnLlS8fsQo-6" value="AGOAPController : AAIController" style="swimlane;fontStyle=1;align=center;verticalAlign=top;childLayout=stackLayout;horizontal=1;startSize=26;horizontalStack=0;resizeParent=1;resizeParentMax=0;resizeLast=0;collapsible=1;marginBottom=0;whiteSpace=wrap;html=1;" vertex="1" parent="WIyWlLk6GJQsqaUBKTNV-1">
          <mxGeometry x="14" y="10" width="280" height="400" as="geometry">
            <mxRectangle x="120" y="80" width="230" height="30" as="alternateBounds" />
          </mxGeometry>
        </mxCell>
        <mxCell id="pFymI8tG2QBnLlS8fsQo-7" value="+ actions : TArray&amp;lt;TSubclassOf&amp;lt;UGOAPAction&amp;gt;&amp;gt;&lt;br&gt;- auxActions : TArray&amp;lt;UGOAPAction*&amp;gt;&lt;br&gt;+ controller : bool&lt;br&gt;+ currentWorld : TArray&amp;lt;FState&amp;gt;&lt;br&gt;+ debug : bool&lt;br&gt;+ desiredWorld : TArray&amp;lt;FState&amp;gt;&lt;br&gt;+ maxDepth : int&lt;br&gt;- plan : TArray&amp;lt;UGOAPAction*&amp;gt;&lt;br&gt;- planner : GOAPPlanner*&lt;br&gt;- wsCurrentWorld : GOAPWorldState&lt;br&gt;- wsDesiredWorld : GOAPWorldState" style="text;strokeColor=none;fillColor=none;align=left;verticalAlign=top;spacingLeft=4;spacingRight=4;overflow=hidden;rotatable=0;points=[[0,0.5],[1,0.5]];portConstraint=eastwest;whiteSpace=wrap;html=1;" vertex="1" parent="pFymI8tG2QBnLlS8fsQo-6">
          <mxGeometry y="26" width="280" height="164" as="geometry" />
        </mxCell>
        <mxCell id="pFymI8tG2QBnLlS8fsQo-8" value="" style="line;strokeWidth=1;fillColor=none;align=left;verticalAlign=middle;spacingTop=-1;spacingLeft=3;spacingRight=3;rotatable=0;labelPosition=right;points=[];portConstraint=eastwest;strokeColor=inherit;" vertex="1" parent="pFymI8tG2QBnLlS8fsQo-6">
          <mxGeometry y="190" width="280" height="8" as="geometry" />
        </mxCell>
        <mxCell id="pFymI8tG2QBnLlS8fsQo-9" value="+ BeginPlay() : void&lt;br&gt;- debugInfo() : void&lt;br&gt;+ executeGOAP() : bool&lt;br&gt;+ generatePlan() : bool&lt;br&gt;+ getCurrentWorldStates() : TArray&amp;lt;FState&amp;gt;&lt;br&gt;+ getDesiredWorldSates() : TArray&amp;lt;FState&amp;gt;&lt;br&gt;+ getPlan() : TArray&amp;lt;UGOAPAction*&amp;gt;&lt;br&gt;+ OnPossess() : void&lt;br&gt;+ setCurrentWorld() : void&lt;br&gt;+ setGoal() : void&lt;br&gt;+ Tick() : void&lt;br&gt;+ updateCurrentWorld() : void&lt;br&gt;+ updateGoal() : void" style="text;strokeColor=none;fillColor=none;align=left;verticalAlign=top;spacingLeft=4;spacingRight=4;overflow=hidden;rotatable=0;points=[[0,0.5],[1,0.5]];portConstraint=eastwest;whiteSpace=wrap;html=1;" vertex="1" parent="pFymI8tG2QBnLlS8fsQo-6">
          <mxGeometry y="198" width="280" height="202" as="geometry" />
        </mxCell>
        <mxCell id="pFymI8tG2QBnLlS8fsQo-10" value="UGOAPAction : UObject" style="swimlane;fontStyle=1;align=center;verticalAlign=top;childLayout=stackLayout;horizontal=1;startSize=26;horizontalStack=0;resizeParent=1;resizeParentMax=0;resizeLast=0;collapsible=1;marginBottom=0;whiteSpace=wrap;html=1;" vertex="1" parent="WIyWlLk6GJQsqaUBKTNV-1">
          <mxGeometry x="274" y="460" width="220" height="410" as="geometry">
            <mxRectangle x="264" y="240" width="150" height="30" as="alternateBounds" />
          </mxGeometry>
        </mxCell>
        <mxCell id="pFymI8tG2QBnLlS8fsQo-11" value="+ cost : float&lt;br&gt;+ effects : TArray&amp;lt;FState&amp;gt;&lt;br&gt;+ name : FString&lt;br&gt;+ preconditions : TArray&amp;lt;FState&amp;gt;&lt;br&gt;- target : AActor*&lt;br&gt;+ targetsType : TSubClassOf&amp;lt;AActor&amp;gt;&lt;br&gt;- wsEffects : GOAPWorldState&lt;br&gt;- wsPreconditions : GOAPWorldState" style="text;strokeColor=none;fillColor=none;align=left;verticalAlign=top;spacingLeft=4;spacingRight=4;overflow=hidden;rotatable=0;points=[[0,0.5],[1,0.5]];portConstraint=eastwest;whiteSpace=wrap;html=1;" vertex="1" parent="pFymI8tG2QBnLlS8fsQo-10">
          <mxGeometry y="26" width="220" height="124" as="geometry" />
        </mxCell>
        <mxCell id="pFymI8tG2QBnLlS8fsQo-12" value="" style="line;strokeWidth=1;fillColor=none;align=left;verticalAlign=middle;spacingTop=-1;spacingLeft=3;spacingRight=3;rotatable=0;labelPosition=right;points=[];portConstraint=eastwest;strokeColor=inherit;" vertex="1" parent="pFymI8tG2QBnLlS8fsQo-10">
          <mxGeometry y="150" width="220" height="8" as="geometry" />
        </mxCell>
        <mxCell id="pFymI8tG2QBnLlS8fsQo-13" value="+ checkProceduralPrecondition() : bool&lt;br&gt;+ create_Precon_Effects() : void&lt;br&gt;+ getCost() : float&lt;br&gt;+ getEffects() : GOAPWorldState&lt;br&gt;+ getName() : FString&lt;br&gt;+ getPreconditions() : GOAPWorldState&lt;br&gt;+ getTarget() : AActor*&lt;br&gt;+ getTargetsList() : TArray&amp;lt;AActor*&amp;gt;&lt;br&gt;+ operator!=() : bool&lt;br&gt;+ operator==() : bool&lt;br&gt;+ performAction() : bool&lt;br&gt;+ setCost() : void&lt;br&gt;+ setEffects() : void&lt;br&gt;+ setName() : void&lt;br&gt;+ setPreconditions() : void&lt;br&gt;+ setTarget() : void" style="text;strokeColor=none;fillColor=none;align=left;verticalAlign=top;spacingLeft=4;spacingRight=4;overflow=hidden;rotatable=0;points=[[0,0.5],[1,0.5]];portConstraint=eastwest;whiteSpace=wrap;html=1;" vertex="1" parent="pFymI8tG2QBnLlS8fsQo-10">
          <mxGeometry y="158" width="220" height="252" as="geometry" />
        </mxCell>
        <mxCell id="pFymI8tG2QBnLlS8fsQo-14" value="GOAPNode" style="swimlane;fontStyle=1;align=center;verticalAlign=top;childLayout=stackLayout;horizontal=1;startSize=26;horizontalStack=0;resizeParent=1;resizeParentMax=0;resizeLast=0;collapsible=1;marginBottom=0;whiteSpace=wrap;html=1;" vertex="1" parent="WIyWlLk6GJQsqaUBKTNV-1">
          <mxGeometry x="594" y="470" width="220" height="300" as="geometry">
            <mxRectangle x="710" y="430" width="100" height="30" as="alternateBounds" />
          </mxGeometry>
        </mxCell>
        <mxCell id="pFymI8tG2QBnLlS8fsQo-15" value="- action : UGOAPAction*&lt;br&gt;- g : float&lt;br&gt;- h : int&lt;br&gt;- parent : int&lt;br&gt;- world : GOAPWorldState" style="text;strokeColor=none;fillColor=none;align=left;verticalAlign=top;spacingLeft=4;spacingRight=4;overflow=hidden;rotatable=0;points=[[0,0.5],[1,0.5]];portConstraint=eastwest;whiteSpace=wrap;html=1;" vertex="1" parent="pFymI8tG2QBnLlS8fsQo-14">
          <mxGeometry y="26" width="220" height="84" as="geometry" />
        </mxCell>
        <mxCell id="pFymI8tG2QBnLlS8fsQo-16" value="" style="line;strokeWidth=1;fillColor=none;align=left;verticalAlign=middle;spacingTop=-1;spacingLeft=3;spacingRight=3;rotatable=0;labelPosition=right;points=[];portConstraint=eastwest;strokeColor=inherit;" vertex="1" parent="pFymI8tG2QBnLlS8fsQo-14">
          <mxGeometry y="110" width="220" height="8" as="geometry" />
        </mxCell>
        <mxCell id="pFymI8tG2QBnLlS8fsQo-17" value="+ getAction() : UGOAPAction*&lt;br&gt;+ getF() : float&lt;br&gt;+ getG() : float&lt;br&gt;+ getH() : int&lt;br&gt;+ getParent() : int&lt;br&gt;+ getWorld() : GOAPWorldState&lt;br&gt;+ operator==() : bool&lt;br&gt;+ SetAction() : void&lt;br&gt;+ setG() : void&lt;br&gt;+ setH() : void&lt;br&gt;+ setParent() : void&lt;br&gt;+ setWorld() : void" style="text;strokeColor=none;fillColor=none;align=left;verticalAlign=top;spacingLeft=4;spacingRight=4;overflow=hidden;rotatable=0;points=[[0,0.5],[1,0.5]];portConstraint=eastwest;whiteSpace=wrap;html=1;" vertex="1" parent="pFymI8tG2QBnLlS8fsQo-14">
          <mxGeometry y="118" width="220" height="182" as="geometry" />
        </mxCell>
        <mxCell id="pFymI8tG2QBnLlS8fsQo-18" value="GOAPPlanner" style="swimlane;fontStyle=1;align=center;verticalAlign=top;childLayout=stackLayout;horizontal=1;startSize=26;horizontalStack=0;resizeParent=1;resizeParentMax=0;resizeLast=0;collapsible=1;marginBottom=0;whiteSpace=wrap;html=1;" vertex="1" parent="WIyWlLk6GJQsqaUBKTNV-1">
          <mxGeometry x="414" y="55" width="250" height="310" as="geometry">
            <mxRectangle x="440" y="80" width="100" height="30" as="alternateBounds" />
          </mxGeometry>
        </mxCell>
        <mxCell id="pFymI8tG2QBnLlS8fsQo-19" value="- availableActions : TArray&amp;lt;UGOAPAction*&amp;gt;&lt;br&gt;- closedList : TArray&amp;lt;GOAPNode&amp;gt;&lt;br&gt;- currentWorldState : GOAPWorldState*&lt;br&gt;- goalWorldState : GOAPWorldState*&lt;br&gt;- lastActions : TArray&amp;lt;UGOAPAction*&amp;gt;&lt;br&gt;- lastWorld : GOAPWorldState*&lt;br&gt;- maxDepth : int&lt;br&gt;- openList : TArray&amp;lt;GOAPNode&amp;gt;" style="text;strokeColor=none;fillColor=none;align=left;verticalAlign=top;spacingLeft=4;spacingRight=4;overflow=hidden;rotatable=0;points=[[0,0.5],[1,0.5]];portConstraint=eastwest;whiteSpace=wrap;html=1;" vertex="1" parent="pFymI8tG2QBnLlS8fsQo-18">
          <mxGeometry y="26" width="250" height="124" as="geometry" />
        </mxCell>
        <mxCell id="pFymI8tG2QBnLlS8fsQo-20" value="" style="line;strokeWidth=1;fillColor=none;align=left;verticalAlign=middle;spacingTop=-1;spacingLeft=3;spacingRight=3;rotatable=0;labelPosition=right;points=[];portConstraint=eastwest;strokeColor=inherit;" vertex="1" parent="pFymI8tG2QBnLlS8fsQo-18">
          <mxGeometry y="150" width="250" height="8" as="geometry" />
        </mxCell>
        <mxCell id="pFymI8tG2QBnLlS8fsQo-21" value="+ addAction() : void&lt;br&gt;+ generatePlan() : TArray&amp;lt;UGOAPAction*&amp;gt;&lt;br&gt;+ getAdjacent() : TArray&amp;lt;GOAPNode&amp;gt;&lt;br&gt;+ getCurrentWorld() : GOAPWorldState&lt;br&gt;+ getGoal() : GOAPWorldState&lt;br&gt;+ getMaxDepth() : int&lt;br&gt;+ lowestFinList() : GOAPNode&lt;br&gt;+ SetCurrentWorld() : void&lt;br&gt;+ setGoal() : void&lt;br&gt;+ setMaxDepth() : void" style="text;strokeColor=none;fillColor=none;align=left;verticalAlign=top;spacingLeft=4;spacingRight=4;overflow=hidden;rotatable=0;points=[[0,0.5],[1,0.5]];portConstraint=eastwest;whiteSpace=wrap;html=1;" vertex="1" parent="pFymI8tG2QBnLlS8fsQo-18">
          <mxGeometry y="158" width="250" height="152" as="geometry" />
        </mxCell>
        <mxCell id="pFymI8tG2QBnLlS8fsQo-22" value="&amp;lt;&amp;lt;struct&amp;gt;&amp;gt;&lt;br&gt;FState" style="swimlane;fontStyle=1;align=center;verticalAlign=top;childLayout=stackLayout;horizontal=1;startSize=40;horizontalStack=0;resizeParent=1;resizeParentMax=0;resizeLast=0;collapsible=1;marginBottom=0;whiteSpace=wrap;html=1;" vertex="1" parent="WIyWlLk6GJQsqaUBKTNV-1">
          <mxGeometry x="14" y="625" width="160" height="80" as="geometry">
            <mxRectangle x="100" y="235" width="100" height="40" as="alternateBounds" />
          </mxGeometry>
        </mxCell>
        <mxCell id="pFymI8tG2QBnLlS8fsQo-23" value="+ name : FString&lt;br&gt;+ value : bool" style="text;strokeColor=none;fillColor=none;align=left;verticalAlign=top;spacingLeft=4;spacingRight=4;overflow=hidden;rotatable=0;points=[[0,0.5],[1,0.5]];portConstraint=eastwest;whiteSpace=wrap;html=1;" vertex="1" parent="pFymI8tG2QBnLlS8fsQo-22">
          <mxGeometry y="40" width="160" height="40" as="geometry" />
        </mxCell>
        <mxCell id="pFymI8tG2QBnLlS8fsQo-26" value="" style="endArrow=none;html=1;edgeStyle=orthogonalEdgeStyle;rounded=0;exitX=1;exitY=0.5;exitDx=0;exitDy=0;entryX=0;entryY=0.5;entryDx=0;entryDy=0;" edge="1" parent="WIyWlLk6GJQsqaUBKTNV-1" source="pFymI8tG2QBnLlS8fsQo-6" target="pFymI8tG2QBnLlS8fsQo-18">
          <mxGeometry relative="1" as="geometry">
            <mxPoint x="244" y="170" as="sourcePoint" />
            <mxPoint x="404" y="170" as="targetPoint" />
          </mxGeometry>
        </mxCell>
        <mxCell id="pFymI8tG2QBnLlS8fsQo-27" value="1" style="edgeLabel;resizable=0;html=1;align=left;verticalAlign=bottom;" connectable="0" vertex="1" parent="pFymI8tG2QBnLlS8fsQo-26">
          <mxGeometry x="-1" relative="1" as="geometry">
            <mxPoint x="2" as="offset" />
          </mxGeometry>
        </mxCell>
        <mxCell id="pFymI8tG2QBnLlS8fsQo-28" value="1" style="edgeLabel;resizable=0;html=1;align=right;verticalAlign=bottom;" connectable="0" vertex="1" parent="pFymI8tG2QBnLlS8fsQo-26">
          <mxGeometry x="1" relative="1" as="geometry">
            <mxPoint x="-2" as="offset" />
          </mxGeometry>
        </mxCell>
        <mxCell id="pFymI8tG2QBnLlS8fsQo-29" value="" style="endArrow=none;html=1;edgeStyle=orthogonalEdgeStyle;rounded=0;exitX=0.25;exitY=1;exitDx=0;exitDy=0;entryX=0.5;entryY=0;entryDx=0;entryDy=0;" edge="1" parent="WIyWlLk6GJQsqaUBKTNV-1" source="pFymI8tG2QBnLlS8fsQo-18" target="pFymI8tG2QBnLlS8fsQo-10">
          <mxGeometry relative="1" as="geometry">
            <mxPoint x="304" y="270" as="sourcePoint" />
            <mxPoint x="464" y="270" as="targetPoint" />
          </mxGeometry>
        </mxCell>
        <mxCell id="pFymI8tG2QBnLlS8fsQo-30" value="1" style="edgeLabel;resizable=0;html=1;align=left;verticalAlign=bottom;" connectable="0" vertex="1" parent="pFymI8tG2QBnLlS8fsQo-29">
          <mxGeometry x="-1" relative="1" as="geometry">
            <mxPoint x="-13" y="16" as="offset" />
          </mxGeometry>
        </mxCell>
        <mxCell id="pFymI8tG2QBnLlS8fsQo-31" value="1 .. *&amp;nbsp;" style="edgeLabel;resizable=0;html=1;align=right;verticalAlign=bottom;" connectable="0" vertex="1" parent="pFymI8tG2QBnLlS8fsQo-29">
          <mxGeometry x="1" relative="1" as="geometry" />
        </mxCell>
        <mxCell id="pFymI8tG2QBnLlS8fsQo-32" value="" style="endArrow=none;html=1;edgeStyle=orthogonalEdgeStyle;rounded=0;exitX=0.75;exitY=1;exitDx=0;exitDy=0;entryX=0.5;entryY=0;entryDx=0;entryDy=0;" edge="1" parent="WIyWlLk6GJQsqaUBKTNV-1" source="pFymI8tG2QBnLlS8fsQo-18" target="pFymI8tG2QBnLlS8fsQo-14">
          <mxGeometry relative="1" as="geometry">
            <mxPoint x="369" y="50" as="sourcePoint" />
            <mxPoint x="243" y="180" as="targetPoint" />
          </mxGeometry>
        </mxCell>
        <mxCell id="pFymI8tG2QBnLlS8fsQo-33" value="1" style="edgeLabel;resizable=0;html=1;align=left;verticalAlign=bottom;" connectable="0" vertex="1" parent="pFymI8tG2QBnLlS8fsQo-32">
          <mxGeometry x="-1" relative="1" as="geometry">
            <mxPoint x="-13" y="16" as="offset" />
          </mxGeometry>
        </mxCell>
        <mxCell id="pFymI8tG2QBnLlS8fsQo-34" value="1 .. *&amp;nbsp;" style="edgeLabel;resizable=0;html=1;align=right;verticalAlign=bottom;" connectable="0" vertex="1" parent="pFymI8tG2QBnLlS8fsQo-32">
          <mxGeometry x="1" relative="1" as="geometry" />
        </mxCell>
        <mxCell id="pFymI8tG2QBnLlS8fsQo-35" value="" style="endArrow=none;html=1;edgeStyle=orthogonalEdgeStyle;rounded=0;exitX=0.25;exitY=0;exitDx=0;exitDy=0;entryX=0.5;entryY=1;entryDx=0;entryDy=0;" edge="1" parent="WIyWlLk6GJQsqaUBKTNV-1" source="pFymI8tG2QBnLlS8fsQo-2" target="pFymI8tG2QBnLlS8fsQo-10">
          <mxGeometry relative="1" as="geometry">
            <mxPoint x="369" y="50" as="sourcePoint" />
            <mxPoint x="243" y="180" as="targetPoint" />
          </mxGeometry>
        </mxCell>
        <mxCell id="pFymI8tG2QBnLlS8fsQo-36" value="1" style="edgeLabel;resizable=0;html=1;align=left;verticalAlign=bottom;" connectable="0" vertex="1" parent="pFymI8tG2QBnLlS8fsQo-35">
          <mxGeometry x="-1" relative="1" as="geometry">
            <mxPoint x="-13" y="-1" as="offset" />
          </mxGeometry>
        </mxCell>
        <mxCell id="pFymI8tG2QBnLlS8fsQo-37" value="1 .. *&amp;nbsp;" style="edgeLabel;resizable=0;html=1;align=right;verticalAlign=bottom;" connectable="0" vertex="1" parent="pFymI8tG2QBnLlS8fsQo-35">
          <mxGeometry x="1" relative="1" as="geometry">
            <mxPoint x="-1" y="18" as="offset" />
          </mxGeometry>
        </mxCell>
        <mxCell id="pFymI8tG2QBnLlS8fsQo-38" value="" style="endArrow=none;html=1;edgeStyle=orthogonalEdgeStyle;rounded=0;exitX=0.75;exitY=0;exitDx=0;exitDy=0;entryX=0.5;entryY=1;entryDx=0;entryDy=0;" edge="1" parent="WIyWlLk6GJQsqaUBKTNV-1" source="pFymI8tG2QBnLlS8fsQo-2" target="pFymI8tG2QBnLlS8fsQo-14">
          <mxGeometry relative="1" as="geometry">
            <mxPoint x="329" y="340" as="sourcePoint" />
            <mxPoint x="243" y="210" as="targetPoint" />
            <Array as="points">
              <mxPoint x="592" y="910" />
              <mxPoint x="704" y="910" />
            </Array>
          </mxGeometry>
        </mxCell>
        <mxCell id="pFymI8tG2QBnLlS8fsQo-39" value="1" style="edgeLabel;resizable=0;html=1;align=left;verticalAlign=bottom;" connectable="0" vertex="1" parent="pFymI8tG2QBnLlS8fsQo-38">
          <mxGeometry x="-1" relative="1" as="geometry">
            <mxPoint x="-13" y="-2" as="offset" />
          </mxGeometry>
        </mxCell>
        <mxCell id="pFymI8tG2QBnLlS8fsQo-40" value="1 .. *&amp;nbsp;" style="edgeLabel;resizable=0;html=1;align=right;verticalAlign=bottom;" connectable="0" vertex="1" parent="pFymI8tG2QBnLlS8fsQo-38">
          <mxGeometry x="1" relative="1" as="geometry">
            <mxPoint x="-1" y="18" as="offset" />
          </mxGeometry>
        </mxCell>
        <mxCell id="pFymI8tG2QBnLlS8fsQo-41" value="" style="endArrow=diamondThin;endFill=0;endSize=24;html=1;rounded=0;exitX=1;exitY=0.5;exitDx=0;exitDy=0;entryX=0;entryY=0.5;entryDx=0;entryDy=0;" edge="1" parent="WIyWlLk6GJQsqaUBKTNV-1" source="pFymI8tG2QBnLlS8fsQo-22" target="pFymI8tG2QBnLlS8fsQo-10">
          <mxGeometry width="160" relative="1" as="geometry">
            <mxPoint x="244" y="170" as="sourcePoint" />
            <mxPoint x="404" y="170" as="targetPoint" />
          </mxGeometry>
        </mxCell>
      </root>
    </mxGraphModel>
  </diagram>
</mxfile>
